<svg width="20" height="20" viewBox="0 0 20 20" fill="none" xmlns="http://www.w3.org/2000/svg">
<rect width="19.6765" height="20" rx="9.83827" fill="#FE9A01"/>
<path d="M13.3821 11.3935C13.2192 10.9689 12.8911 10.6124 12.3977 10.3243C13.1753 10.1763 13.645 9.67038 13.8068 8.80654C13.8678 8.49399 13.8615 8.2054 13.7879 7.94031C13.7142 7.67516 13.5794 7.43935 13.3828 7.23261C13.1864 7.02575 12.9599 6.84522 12.704 6.69087C12.448 6.53651 12.1454 6.38944 11.7963 6.24982L12.3017 4.50661L11.2538 4.19267L10.7624 5.88744C10.5809 5.83308 10.3028 5.75477 9.92814 5.65256L10.4236 3.94396L9.37547 3.62997L8.87 5.37318C8.71889 5.33294 8.4982 5.26938 8.20784 5.18239L6.76712 4.7432L6.43816 5.87769L7.19352 6.10397C7.53835 6.20727 7.69477 6.42459 7.66282 6.7558L7.08715 8.74114C7.13258 8.75475 7.16815 8.76799 7.19406 8.78076L7.08512 8.74812L6.27882 11.5288C6.17438 11.7531 6.00871 11.8314 5.78183 11.7634L5.02651 11.5371L4.44843 12.7398L5.80956 13.1476C5.89578 13.1734 6.02013 13.2119 6.18293 13.263C6.34556 13.3142 6.46768 13.3521 6.54936 13.3765L6.03789 15.1405L7.08616 15.4545L7.59162 13.7113C7.78076 13.7731 8.05685 13.8583 8.41981 13.967L7.91638 15.7032L8.96436 16.0172L9.47583 14.2532C9.85329 14.3463 10.1933 14.4108 10.496 14.4461C10.7989 14.4815 11.0976 14.4847 11.3922 14.4551C11.6866 14.4256 11.9458 14.3565 12.1695 14.2481C12.3933 14.1399 12.599 13.9784 12.7871 13.764C12.9749 13.5495 13.1323 13.2834 13.2589 12.9654C13.5039 12.3423 13.5449 11.8182 13.3821 11.3935ZM9.58752 6.90363C9.6193 6.91315 9.70924 6.93883 9.85737 6.98068C10.0056 7.0225 10.1287 7.05691 10.2269 7.0838C10.3251 7.11075 10.455 7.15594 10.6167 7.2194C10.7783 7.28284 10.9124 7.34312 11.0191 7.4001C11.1258 7.45709 11.2397 7.53256 11.3603 7.62634C11.4812 7.72014 11.5712 7.81733 11.6308 7.91784C11.6904 8.01841 11.7315 8.13602 11.754 8.27059C11.7767 8.40518 11.766 8.54856 11.7218 8.70071C11.6844 8.82985 11.6299 8.94138 11.5584 9.03528C11.4869 9.12913 11.3997 9.19954 11.2974 9.24657C11.1951 9.29363 11.0929 9.33075 10.9914 9.35791C10.8899 9.3851 10.7674 9.3948 10.6242 9.38697C10.4811 9.37919 10.3569 9.36956 10.2518 9.35809C10.1466 9.34664 10.0182 9.32199 9.86647 9.28402C9.71471 9.24603 9.59988 9.21674 9.52213 9.19592C9.44431 9.17509 9.33886 9.14349 9.20563 9.10111C9.07237 9.05871 8.99456 9.03408 8.97182 9.02727L9.5876 6.90363L9.58753 6.90361L9.58752 6.90363ZM11.0834 12.4717C11.0094 12.5649 10.9272 12.6405 10.8364 12.6986C10.7456 12.7564 10.6359 12.7988 10.5074 12.8254C10.3789 12.8522 10.2571 12.8682 10.1421 12.8739C10.027 12.8796 9.8917 12.874 9.73633 12.8576C9.58066 12.8411 9.44579 12.8219 9.33115 12.8001C9.2167 12.7784 9.08138 12.7479 8.92504 12.7086C8.76887 12.6692 8.64755 12.6367 8.56138 12.6109C8.47516 12.585 8.36662 12.5511 8.23569 12.5095C8.10467 12.4679 8.02115 12.4416 7.98482 12.4307L8.66281 10.0925C8.69906 10.1034 8.80748 10.1334 8.9881 10.1824C9.16873 10.2315 9.31559 10.2731 9.42903 10.3071C9.54244 10.3411 9.69705 10.3948 9.89272 10.4686C10.0883 10.5421 10.2501 10.613 10.3783 10.6815C10.5064 10.75 10.6425 10.8371 10.7869 10.9431C10.9313 11.0489 11.0414 11.1583 11.1172 11.2712C11.1929 11.3843 11.2461 11.5153 11.2766 11.6649C11.3074 11.8144 11.2986 11.9722 11.2505 12.1382C11.213 12.2675 11.1574 12.3785 11.0834 12.4717Z" fill="white"/>
</svg>
